<?xml version="1.0" encoding="UTF-8" standalone="no"?>
<!DOCTYPE svg PUBLIC "-//W3C//DTD SVG 1.1//EN"
 "http://www.w3.org/Graphics/SVG/1.1/DTD/svg11.dtd">
<!-- Generated by graphviz version 2.40.1 (20161225.0304)
 -->
<!-- Title: hipdf_deps Pages: 1 -->
<svg width="417pt" height="335pt"
 viewBox="0.00 0.00 416.57 335.20" xmlns="http://www.w3.org/2000/svg" xmlns:xlink="http://www.w3.org/1999/xlink">
<g id="graph0" class="graph" transform="scale(1 1) rotate(0) translate(4 331.2)">
<title>hipdf_deps</title>
<polygon fill="#ffffff" stroke="transparent" points="-4,4 -4,-331.2 412.572,-331.2 412.572,4 -4,4"/>
<text text-anchor="start" x="33.5959" y="-311.6" font-family="Times,serif" font-size="14.00" fill="#000000"> </text>
<text text-anchor="start" x="37.0959" y="-311.6" font-family="Times,serif" font-weight="bold" font-size="14.00" fill="#000000"> HipDF Cython (build) and Python (runtime) dependencies </text>
<text text-anchor="start" x="371.4761" y="-311.6" font-family="Times,serif" font-size="14.00" fill="#000000"> </text>
<!-- hipDF -->
<g id="node1" class="node">
<title>hipDF</title>
<g id="a_node1"><a xlink:href="https://github.com/ROCm/hipDF" xlink:title="https://github.com/ROCm/hipDF">
<polygon fill="none" stroke="#000000" points="192.777,-302.4 138.777,-302.4 138.777,-266.4 192.777,-266.4 192.777,-302.4"/>
<text text-anchor="middle" x="165.777" y="-280.2" font-family="Times,serif" font-size="14.00" fill="#000000">hipDF</text>
</a>
</g>
</g>
<!-- hipMM -->
<g id="node2" class="node">
<title>hipMM</title>
<g id="a_node2"><a xlink:href="https://github.com/ROCm/hipMM" xlink:title="https://github.com/ROCm/hipMM">
<polygon fill="none" stroke="#000000" points="238.0572,-213.6 179.4968,-213.6 179.4968,-177.6 238.0572,-177.6 238.0572,-213.6"/>
<text text-anchor="middle" x="208.777" y="-191.4" font-family="Times,serif" font-size="14.00" fill="#000000">hipMM</text>
</a>
</g>
</g>
<!-- hipDF&#45;&gt;hipMM -->
<g id="edge1" class="edge">
<title>hipDF&#45;&gt;hipMM</title>
<path fill="none" stroke="#000000" d="M174.6866,-266.0006C180.7227,-253.5353 188.8031,-236.8484 195.5819,-222.8494"/>
<polygon fill="#000000" stroke="#000000" points="198.8177,-224.1977 200.0259,-213.672 192.5175,-221.1469 198.8177,-224.1977"/>
<text text-anchor="middle" x="235.1745" y="-235.8" font-family="Times,serif" font-size="14.00" fill="#000000">Cython+Python</text>
</g>
<!-- CuPy -->
<g id="node3" class="node">
<title>CuPy</title>
<g id="a_node3"><a xlink:href="https://github.com/ROCm/CuPy/tree/aiss/cai-branch" xlink:title="https://github.com/ROCm/Cupy/tree/aiss/cai&#45;branch">
<polygon fill="none" stroke="#000000" points="161.777,-213.6 107.777,-213.6 107.777,-177.6 161.777,-177.6 161.777,-213.6"/>
<text text-anchor="middle" x="134.777" y="-191.4" font-family="Times,serif" font-size="14.00" fill="#000000">CuPy</text>
</a>
</g>
</g>
<!-- hipDF&#45;&gt;CuPy -->
<g id="edge4" class="edge">
<title>hipDF&#45;&gt;CuPy</title>
<path fill="none" stroke="#000000" d="M150.881,-266.2995C147.1026,-260.8442 143.453,-254.6402 141.1038,-248.4 138.2089,-240.7102 136.5622,-231.9855 135.6456,-223.875"/>
<polygon fill="#000000" stroke="#000000" points="139.1177,-223.3884 134.8178,-213.7053 132.1408,-223.9564 139.1177,-223.3884"/>
<text text-anchor="middle" x="160.6136" y="-235.8" font-family="Times,serif" font-size="14.00" fill="#000000">Python</text>
</g>
<!-- NumbaHIP -->
<g id="node4" class="node">
<title>NumbaHIP</title>
<g id="a_node4"><a xlink:href="https://github.com/ROCm/numba-hip" xlink:title="https://github.com/ROCm/numba&#45;hip">
<polygon fill="none" stroke="#000000" points="138.539,-124.8 55.015,-124.8 55.015,-88.8 138.539,-88.8 138.539,-124.8"/>
<text text-anchor="middle" x="96.777" y="-102.6" font-family="Times,serif" font-size="14.00" fill="#000000">Numba HIP</text>
</a>
</g>
</g>
<!-- hipDF&#45;&gt;NumbaHIP -->
<g id="edge2" class="edge">
<title>hipDF&#45;&gt;NumbaHIP</title>
<path fill="none" stroke="#000000" d="M138.6341,-275.0222C112.9155,-264.512 75.812,-244.7428 59.1038,-213.6 45.1538,-187.5983 60.5075,-155.3781 75.6011,-133.1668"/>
<polygon fill="#000000" stroke="#000000" points="78.5525,-135.0569 81.5289,-124.8887 72.8612,-130.9814 78.5525,-135.0569"/>
<text text-anchor="middle" x="79.6136" y="-191.4" font-family="Times,serif" font-size="14.00" fill="#000000">Python</text>
</g>
<!-- HIPPython -->
<g id="node5" class="node">
<title>HIPPython</title>
<g id="a_node5"><a xlink:href="https://github.com/ROCm/hip-python" xlink:title="https://github.com/ROCm/hip&#45;python">
<polygon fill="none" stroke="#000000" points="243.5005,-36 162.0535,-36 162.0535,0 243.5005,0 243.5005,-36"/>
<text text-anchor="middle" x="202.777" y="-13.8" font-family="Times,serif" font-size="14.00" fill="#000000">HIP Python</text>
</a>
</g>
</g>
<!-- hipDF&#45;&gt;HIPPython -->
<g id="edge5" class="edge">
<title>hipDF&#45;&gt;HIPPython</title>
<path fill="none" stroke="#000000" d="M192.8201,-279.6647C223.8828,-273.6486 272.0804,-262.351 283.777,-248.4 329.5508,-193.8038 330.8953,-152.3956 298.777,-88.8 288.6681,-68.7839 269.9357,-53.0338 251.6835,-41.5219"/>
<polygon fill="#000000" stroke="#000000" points="253.1806,-38.3391 242.8017,-36.2109 249.5881,-44.347 253.1806,-38.3391"/>
<text text-anchor="middle" x="364.1745" y="-147" font-family="Times,serif" font-size="14.00" fill="#000000">Cython+Python</text>
</g>
<!-- hipMM&#45;&gt;NumbaHIP -->
<g id="edge3" class="edge">
<title>hipMM&#45;&gt;NumbaHIP</title>
<path fill="none" stroke="#000000" d="M179.3423,-181.4658C168.1243,-175.4499 155.5378,-167.902 145.1038,-159.6 135.3265,-151.8206 125.7746,-142.0071 117.7792,-132.9573"/>
<polygon fill="#000000" stroke="#000000" points="120.3541,-130.5834 111.1871,-125.2715 115.0408,-135.1407 120.3541,-130.5834"/>
<text text-anchor="middle" x="164.6136" y="-147" font-family="Times,serif" font-size="14.00" fill="#000000">Python</text>
</g>
<!-- hipMM&#45;&gt;HIPPython -->
<g id="edge6" class="edge">
<title>hipMM&#45;&gt;HIPPython</title>
<path fill="none" stroke="#000000" d="M208.1687,-177.5934C207.122,-146.612 204.9731,-83.006 203.7275,-46.1346"/>
<polygon fill="#000000" stroke="#000000" points="207.2227,-45.9303 203.3869,-36.0543 200.2267,-46.1668 207.2227,-45.9303"/>
<text text-anchor="middle" x="250.1745" y="-102.6" font-family="Times,serif" font-size="14.00" fill="#000000">Cython+Python</text>
</g>
<!-- NumbaHIP&#45;&gt;HIPPython -->
<g id="edge7" class="edge">
<title>NumbaHIP&#45;&gt;HIPPython</title>
<path fill="none" stroke="#000000" d="M111.348,-88.5263C120.4158,-77.7848 132.6839,-64.3305 145.1038,-54 150.2862,-49.6894 156.0265,-45.5105 161.818,-41.6191"/>
<polygon fill="#000000" stroke="#000000" points="163.7876,-44.5134 170.2807,-36.1414 159.984,-38.637 163.7876,-44.5134"/>
<text text-anchor="middle" x="164.6136" y="-58.2" font-family="Times,serif" font-size="14.00" fill="#000000">Python</text>
</g>
<!-- ROCMLLVMPython -->
<g id="node6" class="node">
<title>ROCMLLVMPython</title>
<g id="a_node6"><a xlink:href="https://github.com/ROCm/rocm-llvm-python" xlink:title="https://github.com/ROCm/rocm&#45;llvm&#45;python">
<polygon fill="none" stroke="#000000" points="143.3317,-36 .2223,-36 .2223,0 143.3317,0 143.3317,-36"/>
<text text-anchor="middle" x="71.777" y="-13.8" font-family="Times,serif" font-size="14.00" fill="#000000">ROCM LLVM Python</text>
</a>
</g>
</g>
<!-- NumbaHIP&#45;&gt;ROCMLLVMPython -->
<g id="edge8" class="edge">
<title>NumbaHIP&#45;&gt;ROCMLLVMPython</title>
<path fill="none" stroke="#000000" d="M86.4351,-88.5779C83.6674,-83.02 80.9384,-76.7917 79.1038,-70.8 76.7301,-63.0474 75.123,-54.4173 74.0357,-46.4182"/>
<polygon fill="#000000" stroke="#000000" points="77.5026,-45.9287 72.8852,-36.393 70.5483,-46.7269 77.5026,-45.9287"/>
<text text-anchor="middle" x="99.6136" y="-58.2" font-family="Times,serif" font-size="14.00" fill="#000000">Python</text>
</g>
</g>
</svg>
